<svg width="440" height="90" viewBox="0 0 440 90" fill="none" xmlns="http://www.w3.org/2000/svg">
<path d="M170.367 29.5727C167.114 27.4747 159.735 22.687 151.232 17.5228C142.734 12.3518 133.072 6.95224 125.386 3.227C120.938 1.07523 116.48 -1.02273 111.97 -2.8719C107.461 -4.7278 102.906 -6.40214 98.3199 -7.87475C89.1429 -10.82 79.8179 -12.9179 70.4316 -14.0275C61.0504 -15.1235 51.6028 -15.2109 42.2522 -13.9871C32.9067 -12.7767 23.6634 -10.2215 14.8235 -6.12645C14.1238 -5.83058 13.3884 -5.44058 12.6071 -5.05729C11.8308 -4.66056 11.0086 -4.284 10.2018 -3.8402C8.58289 -2.95932 6.91809 -2.08517 5.45245 -1.23791C3.96637 -0.444453 2.66919 0.30194 1.70401 0.72557C0.738799 1.1492 0.110717 1.25679 0.018798 0.893676C-0.0782479 0.517118 0.202605 -0.0813417 0.825652 -0.854632C1.13715 -1.24464 1.53546 -1.68172 2.0155 -2.15914C2.25552 -2.40121 2.51599 -2.65001 2.79687 -2.90553C3.08795 -3.1476 3.39438 -3.40313 3.71612 -3.66537C4.36978 -4.18986 5.10001 -4.7547 5.90179 -5.34644C6.71378 -5.918 7.60751 -6.48284 8.5676 -7.08802C9.52258 -7.71338 10.5746 -8.25804 11.6776 -8.86322C12.7756 -9.48186 13.9655 -10.0265 15.2065 -10.5914C21.2223 -13.3281 27.4322 -15.2916 33.6982 -16.6566C39.9694 -18.0486 46.3121 -18.7277 52.6445 -18.9362C58.9821 -19.1581 65.3146 -18.7882 71.6011 -18.0351C77.8927 -17.2887 84.1332 -16.0851 90.3073 -14.5587C99.3413 -12.3195 108.253 -9.2465 116.97 -5.44057C125.677 -1.61447 134.221 2.77647 142.627 7.53725C159.454 17.0521 175.724 28.0126 192.081 38.5899C199.43 43.3305 206.784 48.0442 214.204 52.5427C217.922 54.7617 221.634 57.0009 225.393 59.0989C229.131 61.2574 232.905 63.2814 236.699 65.2381C251.882 73.0046 267.545 79.2716 283.575 82.7615C298.609 86.0363 313.996 86.7826 329.005 83.8172C330.884 83.4743 332.743 83.0036 334.607 82.5531C336.456 82.0286 338.315 81.5444 340.148 80.9124C341.992 80.3475 343.805 79.6213 345.623 78.9489C347.42 78.1622 349.228 77.4359 351.016 76.6088C358.16 73.2669 365.095 69.1113 371.933 64.6195C383.735 56.8664 395.271 48.1383 407.38 40.6542C413.446 36.929 419.621 33.5198 426.055 30.7965C432.495 28.1404 439.124 26.3047 445.844 25.4305C449.005 25.0203 452.503 24.6976 456.093 24.6909C459.678 24.6774 463.355 24.9867 466.828 25.6995C469.693 26.2711 473.503 27.32 477.185 28.9406C480.877 30.5275 484.416 32.7062 486.903 34.6562C487.444 35.0664 487.991 35.4833 488.517 35.954L490.11 37.3257C491.136 38.3142 492.183 39.2421 493.138 40.2575C494.277 41.3536 495.212 42.5101 496.08 43.5188C496.902 44.5812 497.632 45.5428 498.235 46.4304C498.822 47.3382 499.318 48.1316 499.721 48.8175C500.099 49.5303 500.39 50.1287 500.599 50.6129C501.437 52.5562 500.942 52.6503 499.297 51.2853C498.94 50.9894 498.827 51.1575 498.582 51.0836C498.46 51.0432 498.306 50.9491 498.077 50.7003C497.832 50.4717 497.5 50.0951 497.04 49.5034C496.963 49.4025 496.81 49.2142 496.739 49.1201L496.202 48.4611L495.641 47.8358L494.527 46.5581C493.777 45.7311 493 44.9309 492.245 44.1172C490.672 42.5707 489.094 41.0241 487.403 39.6725C484.058 36.9021 480.443 34.5486 476.608 32.9012C471.914 30.8435 467.002 29.6332 462.053 29.0414C459.576 28.7523 457.084 28.6514 454.592 28.6514C452.1 28.712 449.608 28.8397 447.126 29.1692C444.644 29.492 442.167 29.9089 439.711 30.5006C438.48 30.7629 437.26 31.126 436.034 31.4487C434.818 31.832 433.598 32.1615 432.393 32.6053C429.972 33.4055 427.587 34.394 425.223 35.4429L423.456 36.2633C422.869 36.5457 422.286 36.8618 421.699 37.1576L418.196 38.9664C399.587 49.0797 382.499 63.7588 363.808 74.7126C358.078 78.068 352.195 81.0536 346.144 83.4205C340.087 85.7404 333.898 87.4416 327.652 88.5175C321.401 89.5665 315.104 90.0439 308.818 89.9968C302.531 89.9229 296.26 89.3513 290.035 88.3763C283.228 87.2533 276.42 85.8614 269.674 83.5886L269.792 83.629C262.714 81.4907 255.712 78.8951 248.828 75.8826C235.806 70.1603 222.88 62.9653 210.353 55.2526C197.806 47.5802 185.611 39.4506 173.916 31.7849C172.997 31.1932 171.725 30.4468 170.367 29.5727Z" fill="#5C8A3F" fill-opacity="0.3"/>
</svg>
