<svg width="306" height="265" viewBox="0 0 306 265" fill="none" xmlns="http://www.w3.org/2000/svg">
<path d="M0.504812 113.923C-1.55803 110.281 -6.22324 101.99 -11.7735 92.7926C-17.3156 83.5904 -23.8552 73.6113 -29.3397 66.2481C-32.5159 61.991 -35.7285 57.7833 -39.1132 53.8026C-42.4946 49.8151 -46.0099 45.9891 -49.6545 42.3522C-56.9486 35.076 -64.8042 28.5848 -73.2085 23.0618C-81.6147 17.5547 -90.5844 13.0337 -100.112 9.88057C-109.628 6.71632 -119.714 4.95631 -130.178 4.93856C-130.993 4.90866 -131.888 4.95693 -132.823 4.97687C-133.76 5.01277 -134.732 5.00678 -135.722 5.07576C-137.703 5.20458 -139.725 5.30504 -141.543 5.47182C-143.354 5.57478 -144.962 5.7189 -146.093 5.69324C-147.224 5.66762 -147.877 5.48141 -147.784 5.07208C-147.69 4.64679 -147.125 4.175 -146.147 3.68747C-145.657 3.4403 -145.06 3.18639 -144.365 2.93012C-144.016 2.7986 -143.644 2.6699 -143.249 2.544C-142.852 2.43644 -142.433 2.32252 -141.996 2.209C-141.112 1.98674 -140.135 1.75973 -139.077 1.53912C-138.018 1.34369 -136.886 1.19339 -135.67 1.03351C-134.448 0.850923 -133.175 0.795208 -131.822 0.702432C-130.468 0.593696 -129.062 0.60271 -127.598 0.6153C-120.502 0.677878 -113.603 1.61135 -106.948 3.17476C-100.275 4.71344 -93.8874 7.00451 -87.7428 9.7655C-81.5866 12.5153 -75.7288 15.8595 -70.105 19.5687C-64.4729 23.2735 -59.1164 27.4155 -53.9833 31.8518C-46.4755 38.3488 -39.4981 45.6293 -33.0695 53.5579C-26.6606 61.502 -20.6877 69.9391 -15.0299 78.6845C-3.69623 96.1756 6.38931 114.864 16.7478 133.206C21.4071 141.435 26.0847 149.639 30.9323 157.658C33.3785 161.64 35.8097 165.64 38.3549 169.52C40.8505 173.451 43.447 177.262 46.0963 181.016C56.7284 195.973 68.5622 209.642 82.1243 220.683C94.843 231.04 109.152 239.012 124.942 243.064C126.905 243.6 128.911 243.997 130.913 244.418C132.937 244.756 134.951 245.14 137.013 245.363C139.052 245.658 141.142 245.776 143.21 245.951C145.315 246.001 147.4 246.117 149.515 246.121C157.989 246.103 166.666 245.166 175.418 243.845C190.522 241.563 205.857 238.173 221.121 236.307C228.757 235.396 236.338 234.855 243.827 235.128C251.288 235.47 258.523 236.729 265.368 239.001C268.587 240.071 272.084 241.386 275.513 243.064C278.94 244.733 282.294 246.77 285.253 249.118C287.703 251.039 290.817 253.884 293.526 257.246C296.261 260.579 298.557 264.437 299.962 267.57C300.275 268.238 300.59 268.915 300.858 269.636L301.698 271.767C302.187 273.246 302.725 274.673 303.133 276.145C303.676 277.785 303.994 279.39 304.321 280.814C304.579 282.271 304.799 283.584 304.933 284.762C305.043 285.953 305.122 286.986 305.167 287.867C305.174 288.763 305.155 289.503 305.114 290.089C304.949 292.442 304.43 292.305 303.538 290.156C303.344 289.69 303.154 289.807 302.956 289.618C302.86 289.519 302.76 289.353 302.664 288.994C302.544 288.648 302.414 288.113 302.269 287.3C302.246 287.163 302.193 286.901 302.172 286.772L301.987 285.856L301.761 284.962L301.333 283.151C301.027 281.965 300.683 280.793 300.366 279.618C299.632 277.321 298.894 275.02 297.952 272.864C296.135 268.501 293.853 264.431 291.011 260.97C287.554 256.692 283.468 253.167 279.04 250.248C276.821 248.794 274.493 247.523 272.116 246.354C269.708 245.246 267.268 244.205 264.736 243.373C262.208 242.534 259.639 241.792 257.002 241.237C255.698 240.924 254.353 240.717 253.024 240.468C251.674 240.284 250.346 240.043 248.976 239.925C246.27 239.597 243.505 239.475 240.729 239.423L238.636 239.421C237.936 239.431 237.223 239.476 236.516 239.499L232.277 239.68C209.507 241.147 185.925 247.934 162.66 250.211C155.529 250.907 148.436 251.158 141.489 250.705C134.56 250.203 127.811 249.015 121.319 247.169C114.836 245.294 108.592 242.821 102.618 239.824C96.6569 236.8 90.9576 233.281 85.5023 229.377C79.565 225.05 73.761 220.452 68.4525 214.995L68.5445 215.091C62.8526 209.613 57.4606 203.71 52.3874 197.442C42.8023 185.561 34.0401 172.24 25.9147 158.584C17.7499 144.959 10.1481 131.038 2.79351 117.82C2.21008 116.792 1.36715 115.442 0.504812 113.923Z" fill="#5C8A3F" fill-opacity="0.3"/>
</svg>
