<svg width="79" height="89" viewBox="0 0 79 89" fill="none" xmlns="http://www.w3.org/2000/svg">
<path d="M9.40451 25.2596C9.91914 25.5408 10.4452 25.7854 10.9804 25.9922C11.9106 26.4576 12.9078 26.6543 13.9026 26.5684C14.8974 26.4825 15.8658 26.116 16.7402 25.4947C16.8238 25.4404 16.8517 25.2685 16.8936 25.1509C17.1091 24.9623 17.312 24.7505 17.5002 24.5178C17.6694 24.3032 17.8212 24.0668 17.9535 23.8122C18.2374 23.2681 18.4276 22.6511 18.5113 22.0031C18.6153 21.3878 18.6017 20.7487 18.4717 20.1417C18.3416 19.5347 18.0991 18.9782 17.7652 18.5207C17.3729 18.1342 16.9168 17.871 16.4329 17.7517C15.9489 17.6325 15.4502 17.6604 14.976 17.8332C14.9039 17.8745 14.8293 17.9078 14.7529 17.9327C14.6492 17.9586 14.5427 17.9586 14.439 17.9327C13.9547 17.8453 13.4935 17.6096 13.0933 17.2452C12.7854 17.0487 12.5165 16.7629 12.3073 16.41C12.0981 16.0571 11.9542 15.6465 11.8869 15.21C11.8652 14.7929 11.9406 14.3771 12.1031 14.0161C12.3003 13.6101 12.577 13.2792 12.905 13.0572C13.7033 12.5303 14.5746 12.2158 15.4679 12.1319C16.3612 12.048 17.2584 12.1966 18.1069 12.5688C19.3738 13.0862 20.5089 14.0396 21.3911 15.3276L21.7956 15.988L22.1652 16.6935C22.8188 18.0865 23.166 19.685 23.1693 21.3157C23.1605 23.7078 22.5427 26.0291 21.4121 27.9189C21.0287 28.5368 20.5963 29.1007 20.1221 29.6013C19.2084 30.5596 18.1756 31.3091 17.0679 31.8175C15.1447 32.6913 13.0753 32.8756 11.0781 32.3512C9.12391 31.8272 7.28326 30.7492 5.6879 29.1943C4.17522 27.7777 2.87928 26.0077 1.8666 23.9751C0.816201 21.8607 0.181774 19.4443 0.0188096 16.9377C-0.0785128 14.7736 0.202731 12.609 0.841582 10.6059C1.44966 8.68464 2.29005 6.90144 3.33101 5.32343C3.92687 4.64435 4.3377 3.73383 4.50243 2.72739C5.06725 2.67312 5.31131 2.12127 5.63904 1.63282C5.76668 1.34111 5.96935 1.11698 6.21156 0.999573C6.45378 0.882162 6.72011 0.878985 6.96394 0.990629C7.24544 0.870751 7.51655 0.713093 7.77284 0.520249C8.29582 -0.0405681 8.74902 -0.131036 9.03492 0.167464C9.32081 0.465963 9.50212 1.21682 9.65553 2.40177C9.73223 2.91736 9.99718 3.50528 9.88561 3.9485C9.82285 4.85305 9.6137 5.20583 9.31386 5.43197C8.99216 5.6097 8.68002 5.81513 8.37949 6.04699C7.05059 7.43065 6.01806 9.23413 5.38104 11.2843C4.74304 13.2675 4.56376 15.4488 4.86505 17.5619C5.23906 20.1837 6.3622 22.5258 8.0099 24.1199C8.46315 24.554 9.04191 24.6897 9.40451 25.2143V25.2596Z" fill="#667085" fill-opacity="0.3"/>
<path d="M9.30099 70.4421C9.66347 70.7933 10.0431 71.1135 10.4376 71.4009C10.7717 71.6944 11.1295 71.9401 11.5045 72.1336C11.8616 72.3093 12.2339 72.4278 12.6132 72.4864C13.4197 72.6141 14.238 72.4996 15.005 72.1517C15.0817 72.1517 15.1235 71.9617 15.1793 71.8712C16.0142 71.4949 16.7219 70.7529 17.1806 69.7727C17.381 69.2851 17.4885 68.7424 17.4943 68.1898C17.5008 67.5746 17.4253 66.9626 17.2712 66.3807C16.9747 65.1541 16.374 64.0888 15.5628 63.3505C15.3879 63.253 15.2379 63.093 15.1304 62.8892C14.9113 62.3301 14.808 61.7066 14.8307 61.0801C14.7644 60.2085 14.959 59.3372 15.3745 58.6468C15.5551 58.3789 15.8014 58.2001 16.0718 58.1403C16.3767 58.0576 16.694 58.1019 16.9783 58.267C18.3728 59.0304 19.5447 60.3478 20.3254 62.0298C21.0718 63.5775 21.5962 65.2875 21.8734 67.0772C22.1033 68.4806 22.0431 69.9378 21.6991 71.3014C21.3549 72.6534 20.7832 73.8893 20.0255 74.9195C18.5667 76.8325 16.6719 78.0853 14.6214 78.4926C12.7865 78.9121 10.8966 78.5966 9.20336 77.588C7.56945 76.6029 6.13646 75.1344 5.01953 73.3005C3.98111 71.6425 3.16764 69.7675 2.61386 67.7556C2.05421 65.7007 1.85182 63.5106 2.02116 61.3423C2.19345 59.3489 2.74414 57.4419 3.62398 55.7923C4.50382 54.1427 5.68533 52.8019 7.06267 51.8899C7.80683 51.5662 8.47274 50.9956 8.99422 50.2346C9.23023 50.3329 9.47907 50.3683 9.72591 50.3388C9.97274 50.3092 10.2124 50.2153 10.4306 50.0627C10.6715 49.9181 10.9443 49.8897 11.1999 49.9826C11.4555 50.0754 11.6772 50.2835 11.8252 50.5693C12.1177 50.6999 12.4157 50.8086 12.7178 50.8949C13.4151 50.9583 13.8195 51.3382 13.8474 51.7995C13.8753 52.2608 13.5406 52.9392 12.9898 53.898C12.7596 54.3231 12.5783 54.9654 12.2925 55.1915C11.8392 55.7976 11.637 55.9423 11.4208 55.8971C11.2047 55.8519 10.9885 55.6618 10.7235 55.698C10.1288 55.7812 9.55401 56.0246 9.03601 56.4126C8.5184 56.8077 8.07152 57.3411 7.72507 57.9775C6.97663 59.4482 6.59451 61.1817 6.63034 62.9434C6.57158 65.235 7.14242 67.4791 8.24107 69.2752C8.5688 69.7275 9.00813 69.9988 9.2243 70.5144L9.30099 70.4421Z" fill="#667085" fill-opacity="0.3"/>
<path d="M51.536 80.1554C51.6824 79.8931 51.8009 79.6036 51.9404 79.3413C52.0527 79.0619 52.1761 78.7901 52.31 78.5272C52.8019 77.6178 53.1295 76.5763 53.2684 75.4801C53.4072 74.3839 53.3537 73.2611 53.1119 72.1954C53.1119 72.1049 52.9654 72.0507 52.8957 71.9874C52.5563 70.8822 51.8949 69.995 51.0548 69.518C49.9308 68.8919 48.6982 68.6671 47.4846 68.8667L47.0313 68.9481C46.8849 68.9481 46.7455 69.0386 46.599 69.0748C46.3155 69.1659 46.0362 69.2776 45.7623 69.4094C45.2563 69.6818 44.7859 70.0541 44.3677 70.513C44.2979 70.5853 44.2213 70.6758 44.1306 70.7572C44.0446 70.8734 43.9363 70.9577 43.8168 71.0014C43.3196 71.1058 42.8098 71.0046 42.3594 70.712C41.7203 70.4481 41.1805 69.8834 40.8463 69.1291C40.7349 68.7962 40.6917 68.4316 40.7208 68.0707C40.7828 67.6938 40.9198 67.3445 41.1182 67.0577C42.1308 65.6066 43.4271 64.5376 44.8697 63.9641C46.2019 63.4414 47.5794 63.1375 48.9699 63.0595C51.0879 62.8791 53.1817 63.7307 54.8412 65.4475C55.7204 66.3503 56.4507 67.4731 56.9889 68.7491C57.2335 69.3846 57.4455 70.0403 57.6235 70.712C57.7824 71.3898 57.9013 72.0822 57.9791 72.7834C58.2179 75.2294 57.9181 77.7131 57.1144 79.9474C56.3542 82.13 55.2216 84.06 53.8022 85.5917C52.4285 87.1449 50.7768 88.2271 48.9978 88.7395C47.1745 89.2295 45.2808 89.0253 43.5448 88.1516C42.1225 87.4057 40.8442 86.2631 39.8003 84.8048C38.8042 83.4081 37.9788 81.8218 37.3527 80.1011C37.1924 79.7121 37.0739 79.278 36.8856 78.889C36.6766 78.4689 36.3917 78.1211 36.0558 77.876C36.2719 77.2066 35.9651 76.7634 35.7698 76.2207C35.5746 75.678 35.3794 75.1171 35.8814 74.5111C35.92 74.1571 35.92 73.7977 35.8814 73.4437C35.735 72.6567 35.8257 72.1231 36.1604 71.9241C36.7662 71.7461 37.3991 71.8026 37.9803 72.0869C38.3778 72.2044 38.9008 72.1411 39.1727 72.4215C39.7863 72.8105 39.9328 73.1542 39.9886 73.5522C40.0093 73.7503 40.0093 73.9512 39.9886 74.1492C39.9868 74.353 40.0033 74.5564 40.0374 74.7553C40.4483 76.6518 41.2122 78.3881 42.2618 79.8117C43.2702 81.2051 44.5606 82.202 45.9854 82.6882C46.7858 82.9999 47.6337 83.0456 48.4513 82.8211C49.2689 82.5967 50.0299 82.1093 50.6644 81.4037C50.8317 81.1866 50.9781 80.9333 51.1245 80.7072C51.244 80.4404 51.4177 80.2214 51.6266 80.074L51.536 80.1554Z" fill="#667085" fill-opacity="0.3"/>
<path d="M44.7721 33.7706C44.7721 33.2731 44.6606 32.7937 44.6327 32.3143C44.6167 31.4831 44.4685 30.6651 44.1973 29.9118C43.9261 29.1584 43.5378 28.4859 43.0568 27.9364C43.0079 27.9364 42.9103 27.9364 42.8406 27.9364C42.3172 27.418 41.662 27.1757 41.0066 27.258C40.116 27.391 39.264 27.8039 38.5243 28.461C37.8218 29.0422 37.2418 29.8412 36.8368 30.7857C36.8045 30.8755 36.7648 30.9603 36.7183 31.0389C36.6772 31.1536 36.6119 31.2508 36.53 31.3194C36.0989 31.61 35.6212 31.7649 35.1354 31.7716C34.4813 31.9021 33.8123 31.7495 33.2318 31.3375C33.0218 31.1587 32.8569 30.9039 32.7575 30.6047C32.6801 30.2899 32.6801 29.9517 32.7575 29.6369C33.103 28.0498 33.7644 26.6086 34.6751 25.4579C35.5136 24.4287 36.4347 23.519 37.4226 22.7443C38.9062 21.5004 40.6906 21.0077 42.4361 21.3603C43.3644 21.5313 44.259 21.9304 45.072 22.5363C46.1404 23.3581 47.0617 24.4655 47.7746 25.7849C48.4876 27.1043 48.9759 28.6055 49.207 30.1887C49.5138 32.1222 49.5138 34.1166 49.207 36.0501C48.9347 37.9533 48.3497 39.7581 47.4916 41.3417C46.6114 42.9427 45.4305 44.2255 44.0608 45.0684C42.9208 45.7395 41.6867 46.0998 40.4349 46.1267C39.2396 46.1529 38.0468 45.9797 36.8856 45.6112C36.6152 45.5184 36.3403 45.4488 36.0628 45.403C35.7332 45.3877 35.4077 45.5011 35.1284 45.7287C34.9192 45.1498 34.5357 45.2221 34.1661 45.1679C33.7965 45.1136 33.42 45.0412 33.3712 44.2633C33.1899 44.1005 33.0434 43.8473 32.8273 43.784C32.3391 43.6031 32.13 43.2865 32.1858 42.8794C32.4135 42.1327 32.7771 41.4685 33.2456 40.9437C33.5106 40.5548 33.7547 39.9577 34.0475 39.7859C34.5775 39.2884 34.8425 39.2702 35.0726 39.3969C35.3027 39.5235 35.4561 39.8492 35.6932 39.9397C36.836 40.4597 38.0479 40.6751 39.2564 40.5728C40.4158 40.4806 41.5405 40.0243 42.5338 39.2432C43.1096 38.8388 43.6076 38.2707 43.9904 37.5815C44.3731 36.8923 44.6309 36.0998 44.7443 35.2632C44.7443 35.0189 44.7443 34.7747 44.7443 34.5395C44.706 34.3058 44.7332 34.0621 44.821 33.8521L44.7721 33.7706Z" fill="#667085" fill-opacity="0.3"/>
<path d="M74.2269 46.0731C74.1223 45.7203 73.9411 45.4128 73.8504 45.0781C73.5378 43.8536 72.87 42.835 71.9886 42.2378C71.9468 42.2378 71.8701 42.3011 71.8213 42.3373C71.3188 42.042 70.7561 41.9659 70.2174 42.1202C69.5116 42.34 68.8474 42.7431 68.265 43.3052C67.6643 43.8493 67.1326 44.5116 66.6891 45.2681C66.6087 45.4512 66.4835 45.5944 66.3335 45.6751C65.8773 45.8255 65.4012 45.8439 64.9389 45.7294C64.2883 45.6723 63.6608 45.3948 63.1189 44.9244C62.9377 44.7695 62.8033 44.5381 62.7385 44.2694C62.6737 44.0007 62.6825 43.7113 62.7633 43.45C63.183 42.2367 63.7797 41.1401 64.5205 40.2207C65.2178 39.3162 65.9708 38.5926 66.7309 37.8057C67.8989 36.6338 69.3335 35.9976 70.8101 35.9966C72.3637 35.9828 73.8846 36.5753 75.1753 37.6971C76.2948 38.6701 77.2083 39.9919 77.832 41.5414C78.4546 43.0486 78.8342 44.7042 78.9477 46.4078C79.0918 48.11 78.9368 49.8326 78.4944 51.4461C78.0228 53.1377 77.1731 54.6084 76.0539 55.6704C75.1287 56.5218 74.06 57.0738 72.9369 57.2804C71.8689 57.4694 70.7848 57.4451 69.7224 57.2081C69.4713 57.2081 69.2273 57.0905 68.9623 57.0814C68.6532 57.099 68.3549 57.2344 68.1047 57.4704C67.9094 56.9006 67.5538 57.009 67.1981 56.9457C66.8425 56.8824 66.5008 56.8191 66.5008 56.0412C66.3335 55.8693 66.208 55.6161 66.0058 55.5528C65.5525 55.3447 65.3573 55.01 65.4758 54.5758C65.7797 53.8734 66.1901 53.258 66.6821 52.7667C66.9414 52.3681 67.2311 52.0044 67.5468 51.6813C68.0628 51.1929 68.2441 51.1386 68.4114 51.2291C68.5788 51.3195 68.6415 51.5908 68.8089 51.6542C69.6349 52.0032 70.5166 52.0686 71.368 51.8441C72.2031 51.6338 72.9747 51.1193 73.5924 50.3607C73.9336 49.9519 74.2025 49.4518 74.3804 48.8953C74.5496 48.3187 74.593 47.6927 74.5059 47.0862C74.4501 46.7334 74.1851 46.435 74.2828 46.0641L74.2269 46.0731Z" fill="#667085" fill-opacity="0.3"/>
</svg>
